Coordinates
version=1
nRows=29
nColumns=24
inDegrees=yes

Units are S.I. units (second, meters, Newtons, ...)
Angles are in degrees.

endheader
time	pelvis_tilt	pelvis_list	pelvis_rotation	pelvis_tx	pelvis_ty	pelvis_tz	hip_flexion_r	hip_adduction_r	hip_rotation_r	knee_angle_r	ankle_angle_r	subtalar_angle_r	mtp_angle_r	hip_flexion_l	hip_adduction_l	hip_rotation_l	knee_angle_l	ankle_angle_l	subtalar_angle_l	mtp_angle_l	lumbar_extension	lumbar_bending	lumbar_rotation
      0.55800000	     -0.35108267	      5.67869698	      5.84861396	     -0.88901297	      0.99335262	      0.24804077	     22.48836782	     -4.59254577	     -8.61208312	      1.98081493	      3.91735906	     -9.40842313	      7.69080334	    -18.78603980	      7.09876761	      8.90740820	     -3.63052292	     10.51091386	    -10.70370146	      0.61379121	     -4.42364131	     -7.62291441	     -4.48104631
      0.56216667	     -0.31432417	      5.61537686	      5.92646574	     -0.88296140	      0.99289413	      0.24808300	     22.48377773	     -4.53170570	     -8.36714192	      1.49010541	      4.00137631	     -9.68543910	      7.69828635	    -18.92640653	      6.97864431	      8.96576919	     -4.14672129	     10.53918542	    -10.67918248	      0.62521806	     -4.41056476	     -7.48661756	     -4.52453094
      0.56633333	     -0.33336738	      5.53813172	      6.00827746	     -0.87685573	      0.99239979	      0.24818494	     22.50742945	     -4.45067076	     -8.00706808	      1.01914492	      3.96118094	    -10.11450720	      7.71980636	    -18.96555000	      6.84464872	      8.94046548	     -4.73808088	     10.59676542	    -10.44765932	      0.66751398	     -4.36908166	     -7.36552492	     -4.67691467
      0.57050000	     -0.29804874	      5.45452697	      6.08664738	     -0.87071156	      0.99201712	      0.24825523	     22.47158668	     -4.35911612	     -7.73158398	      0.50847174	      3.90285290	    -10.45103635	      7.75327215	    -19.03843701	      6.70187892	      8.87721453	     -5.37822658	     10.64567587	    -10.21997964	      0.73421451	     -4.35272228	     -7.20544485	     -4.79062486
      0.57466667	     -0.30049995	      5.36389091	      6.16817847	     -0.86448080	      0.99163177	      0.24834296	     22.45920059	     -4.25800999	     -7.46703827	     -0.00453121	      3.73057051	    -10.80071866	      7.80953509	    -19.04997594	      6.55319927	      8.76063938	     -6.05836036	     10.64038838	     -9.93591031	      0.85271666	     -4.28231516	     -7.05546640	     -4.90310311
      0.57883333	     -0.27501544	      5.26529642	      6.24438814	     -0.85821327	      0.99131530	      0.24844487	     22.40438723	     -4.14075159	     -7.19867382	     -0.52322800	      3.56129301	    -11.14337751	      7.88305342	    -19.06828344	      6.39597033	      8.65493796	     -6.78417986	     10.63609192	     -9.66889945	      1.00737513	     -4.24442840	     -6.88805600	     -5.00394783
      0.58300000	     -0.27056571	      5.15644835	      6.31608645	     -0.85189793	      0.99100929	      0.24854581	     22.36876082	     -4.01092224	     -6.94356954	     -1.06149828	      3.37396479	    -11.45801697	      7.94826071	    -19.04606987	      6.23660712	      8.56969821	     -7.54478390	     10.61845079	     -9.46088002	      1.14966670	     -4.17375158	     -6.70134429	     -5.08824668
      0.58716667	     -0.21705141	      5.05617268	      6.37158818	     -0.84553585	      0.99080980	      0.24871015	     22.26259953	     -3.87314167	     -6.69545244	     -1.57728515	      3.07684808	    -11.81654050	      8.12746927	    -19.03940101	      6.07215619	      8.32565349	     -8.36232270	     10.55513205	     -9.01254383	      1.55441524	     -4.16098601	     -6.53810716	     -5.14483419
      0.59133333	     -0.23944860	      4.93219775	      6.43288052	     -0.83911389	      0.99053649	      0.24884096	     22.24340947	     -3.72258649	     -6.51978371	     -2.12220875	      2.79452591	    -12.04517619	      9.86002863	    -18.91664574	      5.89632231	      8.08286330	     -9.24705486	     10.40173679	     -8.71835187	      5.74440193	     -4.02885683	     -6.34080078	     -5.15307341
      0.59550000	     -0.23981633	      4.80880995	      6.49596344	     -0.83264970	      0.99036949	      0.24899342	     22.15487607	     -3.56268871	     -6.27887186	     -2.58756959	      2.34726914	    -12.42978719	      9.85270918	    -18.81901547	      5.72313020	      7.95353808	    -10.13037189	     10.22785230	     -8.52392986	      5.80465496	     -3.93328132	     -6.14488316	     -5.30146555
      0.59966667	     -0.22334816	      4.68604592	      6.54135628	     -0.82616611	      0.99023649	      0.24919903	     22.05489649	     -3.39436736	     -6.04986260	     -3.07666173	      1.97276963	    -12.78222824	      9.86576182	    -18.67905244	      5.54057086	      7.64253566	    -11.12591538	     10.08208626	     -8.08611791	      5.94457019	     -3.84821577	     -5.96152802	     -5.33660138
      0.60383333	     -0.22527775	      4.55598761	      6.57545319	     -0.81965340	      0.99012540	      0.24941735	     21.97714672	     -3.21811000	     -5.86098581	     -3.57505382	      1.55977234	    -13.07381895	      9.89325864	    -18.48968478	      5.35716675	      7.33305037	    -12.16937537	      9.88065375	     -7.68123426	      6.13793356	     -3.73457645	     -5.76398970	     -5.36432617
      0.60800000	     -0.21532285	      4.41466804	      6.59572202	     -0.81312158	      0.99006518	      0.24966294	     21.88351761	     -3.02523926	     -5.68741069	     -4.06941442	      1.12494814	    -13.34775373	      9.93219126	    -18.28494478	      5.15693765	      6.96519975	    -13.25648806	      9.62024194	     -7.23779935	      6.38889300	     -3.62844319	     -5.54924194	     -5.37749128
      0.61216667	     -0.17482403	      4.26723061	      6.60323671	     -0.80656822	      0.99008328	      0.24994885	     21.76359139	     -2.82025737	     -5.54890366	     -4.58187285	      0.67422795	    -13.64196237	     10.83494943	    -18.08518412	      4.93975026	      6.55881855	    -14.37467928	      9.23545232	     -6.80105245	     11.96680292	     -3.55685577	     -5.33110598	     -5.35377430
      0.61633333	     -0.20926169	      4.12453857	      6.59535501	     -0.80002582	      0.99003157	      0.25025030	     21.74130763	     -2.62661238	     -5.41472043	     -5.13132617	      0.28478901	    -13.83171175	     10.82545317	    -17.75843580	      4.74514036	      6.13532334	    -15.58679599	      8.90361191	     -6.37675079	     12.04828525	     -3.40635273	     -5.11550693	     -5.35814111
      0.62050000	     -0.20686535	      3.96255250	      6.58072855	     -0.79345051	      0.99007331	      0.25059158	     21.65644110	     -2.40616716	     -5.29178171	     -5.63587826	     -0.11479326	    -14.00715548	     10.82212700	    -17.43729494	      4.51248346	      5.66037244	    -16.85160332	      8.49324441	     -5.88305652	     12.18708412	     -3.27450777	     -4.88687400	     -5.32178838
      0.62466667	     -0.20693668	      3.80398979	      6.54830041	     -0.78691084	      0.99013615	      0.25096755	     21.60061932	     -2.18874454	     -5.18895855	     -6.19512081	     -0.47478085	    -14.17124844	     10.82222205	    -17.07413466	      4.28014924	      5.15469871	    -18.17553719	      8.03745571	     -5.37242742	     12.39337088	     -3.15206385	     -4.66054811	     -5.27223277
      0.62883333	     -0.20010897	      3.64120677	      6.49966652	     -0.78040479	      0.99023812	      0.25137903	     21.55741915	     -1.96429076	     -5.10549677	     -6.79525645	     -0.80538668	    -14.33179697	     10.82240827	    -16.68881369	      4.03826203	      4.63743009	    -19.54174079	      7.54100466	     -4.84624400	     12.70685427	     -3.04931770	     -4.41912461	     -5.20888805
      0.63300000	     -0.21135875	      3.47574488	      6.44702679	     -0.77388957	      0.99036186	      0.25181617	     21.51456394	     -1.73932323	     -5.02230396	     -7.35940357	     -1.08483781	    -14.39586832	     10.82059936	    -16.24377984	      3.78686919	      4.10728335	    -20.96514892	      6.93220369	     -4.37794492	     13.02021888	     -2.90458941	     -4.19527703	     -5.13884607
      0.63716667	     -0.18310195	      3.28843033	      6.37281667	     -0.76741878	      0.99054608	      0.25230004	     21.45295875	     -1.48242181	     -4.94801275	     -7.96949920	     -1.33422525	    -14.52096812	     10.69292212	    -15.81223213	      3.49694465	      3.53974501	    -22.41146423	      6.20803507	     -3.99156833	     20.37993438	     -2.82546308	     -3.91841854	     -5.05847958
      0.64133333	     -0.18939233	      3.13414838	      6.29419821	     -0.76100519	      0.99072686	      0.25279565	     21.44769914	     -1.27046401	     -4.91644713	     -8.62514837	     -1.50575034	    -14.50253862	     10.68977676	    -15.30972410	      3.24333805	      3.00729136	    -23.91367399	      5.49419443	     -3.52354872	     20.43828487	     -2.71042142	     -3.70520432	     -4.96770731
      0.64550000	     -0.19732857	      2.96758135	      6.20508350	     -0.75462448	      0.99092934	      0.25332512	     21.44212959	     -1.04204737	     -4.87266168	     -9.27596630	     -1.63713662	    -14.49688672	     10.67821168	    -14.77574049	      2.97013173	      2.48072376	    -25.45556828	      4.72791637	     -3.09905696	     20.54828680	     -2.59488697	     -3.47341293	     -4.86664268
      0.64966667	     -0.18795977	      2.79601561	      6.10921343	     -0.74827966	      0.99117787	      0.25388842	     21.40557915	     -0.80416813	     -4.82575141	     -9.90141831	     -1.71717826	    -14.44519598	     10.66406077	    -14.22859058	      2.67861975	      1.95588004	    -27.03689543	      3.89704266	     -2.71857243	     20.66420263	     -2.49183933	     -3.24483455	     -4.77515312
      0.65383333	     -0.19068085	      2.63425384	      6.00925068	     -0.74203077	      0.99142017	      0.25446406	     21.41185069	     -0.58071012	     -4.80779816	    -10.59002827	     -1.75601954	    -14.40678652	     10.63589110	    -13.63458290	      2.39397059	      1.46209216	    -28.65817628	      3.07268355	     -2.33415147	     20.84659281	     -2.40673426	     -3.01090264	     -4.66098276
      0.65800000	     -0.18381090	      2.46677499	      5.90426369	     -0.73581004	      0.99169922	      0.25506892	     21.38728023	     -0.34698323	     -4.78014288	    -11.23571260	     -1.75274523	    -14.33279882	     10.60275165	    -13.03275816	      2.09527351	      0.99310663	    -30.29549928	      2.19056619	     -2.02374967	     21.03105237	     -2.32498317	     -2.78454231	     -4.55608406
      0.66216667	     -0.18221385	      2.30381533	      5.80082987	     -0.72963418	      0.99201049	      0.25568873	     21.34780006	     -0.11680007	     -4.74755521	    -11.84129454	     -1.70432258	    -14.23459332	     10.57074454	    -12.39831901	      1.79386625	      0.54662287	    -31.95189098	      1.25550609	     -1.77665302	     21.18498679	     -2.23530164	     -2.57365471	     -4.46303624
      0.66633333	     -0.17633395	      2.14748577	      5.69759934	     -0.72356743	      0.99231887	      0.25630990	     21.32318499	      0.10311937	     -4.74286240	    -12.48670186	     -1.62887361	    -14.14194783	     10.52449251	    -11.74386381	      1.49878298	      0.15043934	    -33.63419501	      0.37210686	     -1.53691446	     21.36372973	     -2.17760439	     -2.35269586	     -4.35723680
      0.67050000	     -0.16089704	      1.99044860	      5.59991898	     -0.71752984	      0.99268063	      0.25694193	     21.24875990	      0.32804643	     -4.72875960	    -13.05021263	     -1.51738561	    -14.03489883	     10.47951737	    -11.08258875	      1.19476009	     -0.21899853	    -35.31846791	     -0.55332311	     -1.38752935	     21.50206169	     -2.12164149	     -2.14135186	     -4.26779643
      0.67466667	     -0.16813169	      1.83804662	      5.50818717	     -0.71156990	      0.99302572	      0.25757700	     21.20172606	      0.54476974	     -4.72609446	    -13.62287006	     -1.38917670	    -13.93366138	     10.42188792	    -10.37884629	      0.90121819	     -0.52524492	    -37.00988413	     -1.44017769	     -1.27429180	     21.63463142	     -2.05870802	     -1.93988248	     -4.17869433
